<svg width="32" height="23" viewBox="0 0 32 23" fill="none" xmlns="http://www.w3.org/2000/svg">
<rect x="9" y="4" width="15" height="15" fill="white"/>
<path d="M25.354 0H6.64599C2.97551 0 0 3.02229 0 6.75047V16.2495C0 19.9777 2.97551 23 6.64599 23H25.354C29.0245 23 32 19.9777 32 16.2495V6.75047C32 3.02229 29.0245 0 25.354 0ZM20.8594 11.9622L12.109 16.2012C11.8759 16.3141 11.6065 16.1414 11.6065 15.8791V7.13614C11.6065 6.87005 11.8829 6.69759 12.1166 6.81788L20.8669 11.3218C21.1271 11.4557 21.1226 11.8347 20.8594 11.9622Z" fill="#F61C0D"/>
</svg>
